<svg width="401" height="584" viewBox="0 0 401 584" fill="none" xmlns="http://www.w3.org/2000/svg">
<rect width="401" height="584" fill="#82A985"/>
<g clip-path="url(#clip0_494_237)">
<mask id="mask0_494_237" style="mask-type:luminance" maskUnits="userSpaceOnUse" x="25" y="24" width="351" height="497">
<path d="M25 24V521H376V24H25Z" fill="white"/>
</mask>
<g mask="url(#mask0_494_237)">
<path d="M25 24V521H376V24H25Z" fill="white"/>
<path d="M376 24H25V521H376V24Z" fill="#F5DE91"/>
<path d="M576.889 970.949L334.449 1069.49C324.472 1073.55 313.097 1068.75 309.043 1058.76L-118.199 7.05767C-122.253 -2.92244 -117.452 -14.3005 -107.474 -18.3559L134.964 -116.899C144.941 -120.954 156.316 -116.151 160.37 -106.171L587.61 945.533C591.666 955.516 586.865 966.891 576.889 970.949Z" fill="#2C3872" stroke="#2C3872"/>
<path d="M81.058 450.764L73.5914 443.824L71.5786 441.316L69.6298 446.263L73.5903 452.968L71.2522 458.906L67.7449 467.816L62.0308 465.565L56.2525 455.855L46.447 459.425L41.9004 472.497L56.9647 478.431L67.3542 477.951L74.2384 468.085L81.058 450.764Z" fill="black" stroke="black"/>
<path d="M210.769 44.4352L200.012 82.4611C200.012 82.4611 161.401 54.5421 132.398 45.0514C123.98 42.2966 116.375 41.0958 109.514 41.2581L57.4893 273.191C61.4302 304.465 65.5881 326.041 65.5881 326.041L-10.7246 304.44L-4.57755 282.711L50.155 305.888L57.4893 273.191C47.171 191.309 38.3398 42.942 109.514 41.2581L114.889 17.2959L210.769 44.4352Z" fill="black"/>
<path d="M210.769 44.4352L200.012 82.4611C200.012 82.4611 161.401 54.5421 132.398 45.0514C3.29651 2.80468 65.5881 326.041 65.5881 326.041L-10.7246 304.44L-4.57755 282.711L50.155 305.888L114.889 17.2959L210.769 44.4352Z" stroke="black"/>
<path d="M318.293 223.736H340.511C341.587 223.736 342.461 222.863 342.461 221.786V147.275C342.461 146.198 341.587 145.324 340.511 145.324H176.553C175.476 145.324 174.603 144.451 174.603 143.374V125.038C174.603 123.961 173.73 123.088 172.653 123.088H145.511C144.434 123.088 143.561 123.961 143.561 125.038V175.141C143.561 176.54 144.897 177.531 146.192 177.004C166.688 168.662 300.375 116.852 316.017 178.093C319.679 192.431 317.254 214.463 316.331 221.497C316.175 222.683 317.097 223.736 318.293 223.736Z" fill="#B44B47" stroke="#B44B47"/>
<path d="M213.895 306.049L143.561 356.016L160.753 457.673L245.154 492.132L329.555 442.166L348.311 356.016L329.555 306.049H213.895Z" fill="#82A985"/>
<path d="M309.394 47.5728L295.361 56.4403L290.535 58.5554L297.965 63.7932L310.366 60.3971L319.282 66.6828L332.656 76.111L326.942 84.221L308.971 89.2085L311.357 106.34L331.194 119.221L346.259 97.8397L349.147 81.1153L335.398 65.9053L309.394 47.5728Z" fill="black" stroke="black"/>
<path d="M240.865 493.497C276.394 492.136 329.785 448.245 329.785 448.245L348.31 356.179C348.31 356.179 273.077 466.147 238.276 464.543C205.291 463.026 184.183 454.861 158.348 435.66C149.265 428.907 128.578 438.632 128.578 438.632L130.686 459.761C130.686 459.761 155.313 474.16 166.498 477.199C200.113 486.335 205.649 494.847 240.865 493.497Z" fill="#B44B47"/>
<path d="M230.54 275.725C188.623 285.76 140.303 339.493 140.303 339.493L146.653 356.884C146.653 356.884 199.102 311.563 240.463 302.9C279.665 294.689 303.979 321.643 342.918 312.285C356.705 308.972 377.015 299.828 377.015 299.828L368.283 275.914C368.283 275.914 347.995 285.145 334.186 288.371C294.626 297.614 270.048 266.267 230.54 275.725Z" fill="#B44B47" stroke="#B44B47" stroke-width="28"/>
<path d="M291.831 181.238C302.321 169.773 253.93 181.238 253.93 181.238L274.143 183.669L270.431 208.132H275.072L275.957 183.669C275.957 183.669 286.722 186.822 291.831 181.238Z" fill="#1C1C1C" stroke="#1C1C1C" stroke-width="8"/>
<path d="M166.537 482.375L143.146 483.023C132.381 483.323 123.411 474.834 123.113 464.067L114.109 139.229C113.811 128.461 122.296 119.489 133.061 119.191L156.452 118.542C167.218 118.244 176.187 126.731 176.485 137.5L185.489 462.335C185.788 473.106 177.302 482.075 166.537 482.375Z" fill="#B44B47" stroke="#B44B47"/>
</g>
</g>
<defs>
<clipPath id="clip0_494_237">
<rect width="351" height="497" fill="white" transform="translate(25 24)"/>
</clipPath>
</defs>
</svg>
