<svg width="401" height="584" viewBox="0 0 401 584" fill="none" xmlns="http://www.w3.org/2000/svg">
<rect width="401" height="584" fill="#2C3872"/>
<g clip-path="url(#clip0_494_238)">
<mask id="mask0_494_238" style="mask-type:luminance" maskUnits="userSpaceOnUse" x="25" y="24" width="351" height="497">
<path d="M25 24V521H376V24H25Z" fill="white"/>
</mask>
<g mask="url(#mask0_494_238)">
<path d="M25 24V521H376V24H25Z" fill="white"/>
<path d="M376 24H25V521H376V24Z" fill="#2C3872"/>
<path d="M69.2937 136.19L-13.8262 286.28L94.8797 489.019L267.913 507.443L375.414 348.348L341.052 155.199L269.759 62.1445L69.2937 136.19Z" fill="#F5DE91" stroke="#F5DE91"/>
<path d="M65.3641 52.5244H48.7891L49.1791 52.5243C49.1791 52.5243 62.0296 47.1533 65.3641 52.5244L74.7241 63.6424H63.4141C63.4141 63.6424 67.2942 55.6332 65.3641 52.5244Z" fill="#B44B47"/>
<path d="M65.3641 52.5244H48.7891L49.1791 52.5243C49.1791 52.5243 62.0296 47.1533 65.3641 52.5244ZM65.3641 52.5244L74.7241 63.6424H63.4141C63.4141 63.6424 67.2942 55.6332 65.3641 52.5244Z" stroke="#B44B47" stroke-width="11"/>
<path d="M182.928 182.129L196.711 126.872L196.387 128.172C196.387 128.172 203.596 175.48 182.928 182.129L138.1 204.087L147.505 166.383C147.505 166.383 170.964 185.978 182.928 182.129Z" fill="#B44B47"/>
<path d="M182.928 182.129L196.711 126.872L196.387 128.172C196.387 128.172 203.596 175.48 182.928 182.129ZM182.928 182.129L138.1 204.087L147.505 166.383C147.505 166.383 170.964 185.978 182.928 182.129Z" stroke="#B44B47" stroke-width="11"/>
<path d="M187.313 449.891L182.17 496.232L266.121 505.556L298.77 211.389L322.577 214.032L328.615 159.632L269.724 153.092C269.724 153.092 310.514 433.506 236.18 455.317C216.853 460.99 187.313 449.891 187.313 449.891Z" fill="#B44B47" stroke="#B44B47" stroke-width="11"/>
<path d="M311.617 372.936C273.665 372.936 259.779 366.126 259.779 366.126V372.936H283.998L300.569 379.319L292.921 394.214H311.617C311.617 394.214 336.26 372.936 311.617 372.936Z" fill="#82A985" stroke="#82A985" stroke-width="9"/>
<path d="M187.269 333.947L179.935 355.351C179.516 356.574 178.185 357.226 176.963 356.807C175.74 356.387 175.089 355.056 175.508 353.833L182.842 332.429C183.26 331.206 184.591 330.554 185.814 330.974C187.036 331.393 187.688 332.724 187.269 333.947Z" fill="#2C3872" stroke="#2C3872" stroke-width="8"/>
<path d="M251.079 370.304C229.962 362.982 200.664 217.551 214.802 234.88C263.386 294.432 240.28 224.997 245.248 226.72C266.366 234.043 276.769 350.436 262.141 367.34C258.699 371.317 256.047 372.028 251.079 370.304Z" fill="#2C3872" stroke="#2C3872" stroke-width="8"/>
<path d="M76.604 98.6928L74.1649 124.687L72.0352 132.845L87.0377 127.387L95.3232 108.128L113.326 101.578L140.331 91.7532L145.547 106.101L133.633 134.065L159.775 145.229L198.307 129.734L184.554 91.9096L164.49 74.103L129.113 79.5891L76.604 98.6928Z" fill="#82A985" stroke="#82A985" stroke-width="10"/>
<path d="M47.8512 477.331L35.3712 481.817C35.3712 481.817 33.0946 489.343 35.3712 493.131C38.0683 497.613 47.8512 498.007 47.8512 498.007L62.2812 493.131C62.2812 493.131 64.5111 485.629 62.2812 481.817C59.3021 476.723 47.8512 477.331 47.8512 477.331Z" fill="#F5DE91" stroke="#F5DE91"/>
<path d="M158.711 357.544C42.7493 357.544 25 357.544 25 357.544V438.687H158.711C158.711 438.687 274.673 357.544 158.711 357.544Z" fill="#82A985" stroke="#82A985"/>
<path d="M92.4328 362.947C76.6608 347.107 114.053 203.545 119.167 225.32C136.741 300.147 146.398 227.607 150.108 231.334C165.88 247.174 124.23 356.352 103.675 365.132C98.8386 367.198 96.1437 366.674 92.4328 362.947Z" fill="#2C3872" stroke="#2C3872" stroke-width="8"/>
<path d="M256.254 304.489C256.254 304.489 282.611 372.082 256.254 372.082C197.828 372.082 204.879 397.303 101.122 372.082C75.5085 365.855 101.122 304.489 101.122 304.489L111.196 355.94H238.122L256.254 304.489Z" fill="#2C3872" stroke="#2C3872" stroke-width="9"/>
</g>
</g>
<defs>
<clipPath id="clip0_494_238">
<rect width="351" height="497" fill="white" transform="translate(25 24)"/>
</clipPath>
</defs>
</svg>
