<svg width="401" height="584" viewBox="0 0 401 584" fill="none" xmlns="http://www.w3.org/2000/svg">
<rect width="401" height="584" fill="#B44B47"/>
<g clip-path="url(#clip0_494_239)">
<mask id="mask0_494_239" style="mask-type:luminance" maskUnits="userSpaceOnUse" x="26" y="24" width="351" height="497">
<path d="M26 24V521H377V24H26Z" fill="white"/>
</mask>
<g mask="url(#mask0_494_239)">
<path d="M26 24V521H377V24H26Z" fill="white"/>
<path d="M377 24H26V521H377V24Z" fill="#2C3872"/>
<path d="M95.8009 -28.2749L-39.9102 61.7068L-6.73633 244.773L156.117 306.829L318.97 216.848L355.16 61.7068L318.97 -28.2749H95.8009Z" fill="#F5DE91" stroke="#F5DE91"/>
<path d="M156.217 173.412L43.5508 496.119C43.5508 496.119 60.7635 502.801 71.7174 496.119C107.276 474.421 120.561 250.853 156.217 263.469C187.858 274.665 197.956 472.981 229.451 496.119C239.947 503.827 256.491 496.119 256.491 496.119L156.217 173.412Z" fill="#B44B47" stroke="#B44B47" stroke-width="12"/>
<path d="M199.709 151.619C199.709 151.619 187.669 146.881 179.245 147.812C173.592 148.438 169.9 149.009 165.198 152.099C159.685 155.723 155.963 164.97 155.963 164.97L163.476 189.603C163.476 189.603 171.708 195.805 178.522 195.782C184.143 195.763 187.554 194.17 192.569 191.494C200.199 187.424 207.223 176.252 207.223 176.252L199.709 151.619Z" fill="black" stroke="black"/>
<path d="M92.0311 197.63L81.4224 66.3232L65.3906 66.6396L67.3356 165.238L76.864 241.768L94.2639 310.836L115.465 328.684L266.162 325.71L290.209 325.235L306.745 350.482L319.12 408.689L320.92 499.985L341.761 499.571L339.96 408.278L327.893 284.306L284.181 310.836L237.684 264.167L154.506 310.836L114.24 266.603L92.0311 197.63Z" fill="#82A985" stroke="#82A985" stroke-width="15"/>
<path d="M145.925 371.198L137.15 376.854L139.295 388.363L149.825 392.264L160.355 386.607L162.695 376.854L160.355 371.198H145.925Z" fill="#F5DE91" stroke="#F5DE91"/>
<path d="M126.23 423.082L120.224 440.937L117.65 446.188H126.23L133.952 434.637H144.248H159.692V446.188L148.538 462.994L159.692 477.697L182 476.648V446.188L175.136 428.333L156.26 423.082H126.23Z" fill="#82A985" stroke="#82A985" stroke-width="10"/>
<path d="M206.577 64.1812H182V246.231H338.009V297.857H366.86V97.3405C366.86 97.3405 222.328 324.196 206.577 170.151C202.482 130.098 206.577 64.1812 206.577 64.1812Z" fill="black"/>
<path d="M325.519 64.1812H298.609L302.509 65.5805H310.265V77.0548H314.75V65.5805H321.034L325.519 64.1812Z" fill="#1C1C1C" stroke="#1C1C1C" stroke-width="14"/>
<path d="M86.5298 54.0381H65.3906V108.526H86.5298H103.826V267.038H118.431L103.826 54.0381H86.5298Z" fill="black" stroke="black" stroke-width="12"/>
</g>
</g>
<defs>
<clipPath id="clip0_494_239">
<rect width="351" height="497" fill="white" transform="translate(26 24)"/>
</clipPath>
</defs>
</svg>
