<svg width="1440" height="92" viewBox="0 0 1440 92" fill="none" xmlns="http://www.w3.org/2000/svg">
<rect width="1440" height="92" fill="#FFF7E8"/>
<path d="M231.086 30L206 59H231.086C231.086 59 228.636 48.4492 231.086 42.0036C232.365 38.6394 235.075 36.1385 238.829 34.3346L282.887 59L331.89 40.4534C335.746 41.3939 338 42.0036 338 42.0036V38.1408L331.89 40.4534C313.701 36.0174 259.871 24.2223 238.829 34.3346L231.086 30Z" fill="#B44B47"/>
<path d="M338 38.1408V42.0036C338 42.0036 241.052 15.7816 231.086 42.0036C228.636 48.4492 231.086 59 231.086 59H206L231.086 30L282.887 59L338 38.1408Z" stroke="#B44B47" stroke-width="9"/>
<path d="M118 41.0106L88.3152 59C88.3152 59 87.7005 56.2517 88.3152 54.5026C90.3109 48.8251 110.876 46.7039 109.716 41.0106C108.686 35.9585 90.4435 34.3462 88.3152 29.3175C87.6059 27.6415 88.3152 25 88.3152 25L118 41.0106Z" fill="#F5DE91" stroke="#F5DE91" stroke-width="19"/>
<path d="M423 30H516L502.522 33.1522H475.72V59H460.217V33.1522H438.5L423 30Z" fill="#1C1C1C" stroke="#1C1C1C" stroke-width="10"/>
<path d="M665.263 31L689 40.625V45.2917L665.263 36.5417L630.399 45.2917L623.352 59H610L630.399 36.5417L665.263 31Z" fill="#82A985" stroke="#82A985" stroke-width="14"/>
<path d="M963.899 66.4327C976.227 63.2182 970.01 25.2647 963.899 30.4938C942.898 48.4633 945.799 29.7374 942.898 30.4938C930.57 33.7084 943.941 63.2182 956.268 66.4327C959.169 67.1891 960.998 67.1891 963.899 66.4327Z" fill="#2C3872" stroke="#2C3872" stroke-width="6"/>
<path d="M1161.45 33H1177V54.814H1078.26V61H1060V45.6977C1060 45.6977 1151.48 64.1561 1161.45 45.6977C1164.04 40.8985 1161.45 33 1161.45 33Z" fill="#B44B47" stroke="#B44B47" stroke-width="12"/>
<path d="M852.008 66.9938H865.163C867.585 67.0078 869 66.9938 869 66.9938H865.163C847.521 66.8914 776.48 65.2973 810.547 45.9069C849.289 23.8554 797.633 31.1601 797.633 31.1601L782 66.9938H852.008Z" fill="#F5DE91"/>
<path d="M852.008 66.9938H869C869 66.9938 771.805 67.9584 810.547 45.9069C849.289 23.8554 797.633 31.1601 797.633 31.1601L782 66.9938H852.008Z" stroke="#F5DE91" stroke-width="9"/>
<path d="M1277.7 35.0306C1332.1 35.0309 1352 28 1352 28V35.0303H1317.29L1293.53 41.6212L1304.5 57H1277.7C1277.7 57 1242.38 35.0304 1277.7 35.0306Z" fill="#82A985" stroke="#82A985" stroke-width="9"/>
</svg>
