<svg width="1440" height="92" viewBox="0 0 1440 92" fill="none" xmlns="http://www.w3.org/2000/svg">
<rect width="1440" height="92" fill="#FFF7E8"/>
<path d="M1208.91 30L1234 59H1208.91C1208.91 59 1211.36 48.4492 1208.91 42.0036C1207.64 38.6394 1204.93 36.1385 1201.17 34.3346L1157.11 59L1108.11 40.4534C1104.25 41.3939 1102 42.0036 1102 42.0036V38.1408L1108.11 40.4534C1126.3 36.0174 1180.13 24.2223 1201.17 34.3346L1208.91 30Z" fill="#B44B47"/>
<path d="M1102 38.1408V42.0036C1102 42.0036 1198.95 15.7816 1208.91 42.0036C1211.36 48.4492 1208.91 59 1208.91 59H1234L1208.91 30L1157.11 59L1102 38.1408Z" stroke="#B44B47" stroke-width="9"/>
<path d="M1322 41.0106L1351.68 59C1351.68 59 1352.3 56.2517 1351.68 54.5026C1349.69 48.8251 1329.12 46.7039 1330.28 41.0106C1331.31 35.9585 1349.56 34.3462 1351.68 29.3175C1352.39 27.6415 1351.68 25 1351.68 25L1322 41.0106Z" fill="#F5DE91" stroke="#F5DE91" stroke-width="19"/>
<path d="M1017 30H924L937.478 33.1522H964.28V59H979.783V33.1522H1001.5L1017 30Z" fill="#1C1C1C" stroke="#1C1C1C" stroke-width="10"/>
<path d="M774.737 31L751 40.625V45.2917L774.737 36.5417L809.601 45.2917L816.648 59H830L809.601 36.5417L774.737 31Z" fill="#82A985" stroke="#82A985" stroke-width="14"/>
<path d="M476.101 66.4327C463.773 63.2182 469.99 25.2647 476.101 30.4938C497.102 48.4633 494.201 29.7374 497.102 30.4938C509.43 33.7084 496.059 63.2182 483.732 66.4327C480.831 67.1891 479.002 67.1891 476.101 66.4327Z" fill="#2C3872" stroke="#2C3872" stroke-width="6"/>
<path d="M278.555 33H263V54.814H361.74V61H380V45.6977C380 45.6977 288.524 64.1561 278.555 45.6977C275.963 40.8985 278.555 33 278.555 33Z" fill="#B44B47" stroke="#B44B47" stroke-width="12"/>
<path d="M587.992 66.9938H574.837C572.415 67.0078 571 66.9938 571 66.9938H574.837C592.479 66.8914 663.52 65.2973 629.453 45.9069C590.711 23.8554 642.367 31.1601 642.367 31.1601L658 66.9938H587.992Z" fill="#F5DE91"/>
<path d="M587.992 66.9938H571C571 66.9938 668.195 67.9584 629.453 45.9069C590.711 23.8554 642.367 31.1601 642.367 31.1601L658 66.9938H587.992Z" stroke="#F5DE91" stroke-width="9"/>
<path d="M162.301 35.0306C107.903 35.0309 88 28 88 28V35.0303H122.714L146.466 41.6212L135.504 57H162.301C162.301 57 197.624 35.0304 162.301 35.0306Z" fill="#82A985" stroke="#82A985" stroke-width="9"/>
</svg>
