<svg width="351" height="497" viewBox="0 0 351 497" fill="none" xmlns="http://www.w3.org/2000/svg">
<g clip-path="url(#clip0_352_2100)">
<mask id="mask0_352_2100" style="mask-type:luminance" maskUnits="userSpaceOnUse" x="0" y="0" width="351" height="497">
<path d="M0 0V497H351V0H0Z" fill="white"/>
</mask>
<g mask="url(#mask0_352_2100)">
<path d="M0 0V497H351V0H0Z" fill="white"/>
<path d="M351 0H0V497H351V0Z" fill="#2C3872"/>
<path d="M69.8009 -52.2749L-65.9102 37.7068L-32.7363 220.773L130.117 282.829L292.97 192.848L329.16 37.7068L292.97 -52.2749H69.8009Z" fill="#F5DE91" stroke="#F5DE91"/>
<path d="M130.217 149.412L17.5508 472.119C17.5508 472.119 34.7635 478.801 45.7174 472.119C81.2756 450.421 94.5606 226.853 130.217 239.469C161.858 250.665 171.956 448.981 203.451 472.119C213.947 479.827 230.491 472.119 230.491 472.119L130.217 149.412Z" fill="#B44B47" stroke="#B44B47" stroke-width="12"/>
<path d="M173.709 127.619C173.709 127.619 161.669 122.881 153.245 123.812C147.592 124.438 143.9 125.009 139.198 128.099C133.685 131.723 129.963 140.97 129.963 140.97L137.476 165.603C137.476 165.603 145.708 171.805 152.522 171.782C158.143 171.763 161.554 170.17 166.569 167.494C174.199 163.424 181.223 152.252 181.223 152.252L173.709 127.619Z" fill="black" stroke="black"/>
<path d="M66.0311 173.63L55.4224 42.3232L39.3906 42.6396L41.3356 141.238L50.864 217.768L68.2639 286.836L89.4651 304.684L240.162 301.71L264.209 301.235L280.745 326.482L293.12 384.689L294.92 475.985L315.761 475.571L313.96 384.278L301.893 260.306L258.181 286.836L211.684 240.167L128.506 286.836L88.2405 242.603L66.0311 173.63Z" fill="#82A985" stroke="#82A985" stroke-width="15"/>
<path d="M119.925 347.198L111.15 352.854L113.295 364.363L123.825 368.264L134.355 362.607L136.695 352.854L134.355 347.198H119.925Z" fill="#F5DE91" stroke="#F5DE91"/>
<path d="M100.23 399.082L94.2244 416.937L91.6504 422.188H100.23L107.952 410.637H118.248H133.692V422.188L122.538 438.994L133.692 453.697L156 452.648V422.188L149.136 404.333L130.26 399.082H100.23Z" fill="#82A985" stroke="#82A985" stroke-width="10"/>
<path d="M180.577 40.1812H156V222.231H312.009V273.857H340.86V73.3405C340.86 73.3405 196.328 300.196 180.577 146.151C176.482 106.098 180.577 40.1812 180.577 40.1812Z" fill="black"/>
<path d="M299.519 40.1812H272.609L276.509 41.5805H284.265V53.0548H288.75V41.5805H295.034L299.519 40.1812Z" fill="#1C1C1C" stroke="#1C1C1C" stroke-width="14"/>
<path d="M60.5298 30.0381H39.3906V84.5263H60.5298H77.8255V243.038H92.4306L77.8255 30.0381H60.5298Z" fill="black" stroke="black" stroke-width="12"/>
</g>
</g>
<defs>
<clipPath id="clip0_352_2100">
<rect width="351" height="497" fill="white"/>
</clipPath>
</defs>
</svg>
