<svg width="351" height="497" viewBox="0 0 351 497" fill="none" xmlns="http://www.w3.org/2000/svg">
<g clip-path="url(#clip0_352_2082)">
<mask id="mask0_352_2082" style="mask-type:luminance" maskUnits="userSpaceOnUse" x="0" y="0" width="351" height="497">
<path d="M0 0V497H351V0H0Z" fill="white"/>
</mask>
<g mask="url(#mask0_352_2082)">
<path d="M0 0V497H351V0H0Z" fill="white"/>
<path d="M351 0H0V497H351V0Z" fill="#F5DE91"/>
<path d="M551.889 946.949L309.449 1045.49C299.472 1049.55 288.097 1044.75 284.043 1034.76L-143.199 -16.9423C-147.253 -26.9224 -142.452 -38.3005 -132.474 -42.3559L109.964 -140.899C119.941 -144.954 131.316 -140.151 135.37 -130.171L562.61 921.533C566.666 931.516 561.865 942.891 551.889 946.949Z" fill="#2C3872" stroke="#2C3872"/>
<path d="M56.058 426.764L48.5914 419.824L46.5786 417.316L44.6298 422.263L48.5903 428.968L46.2522 434.906L42.7449 443.816L37.0308 441.565L31.2525 431.855L21.447 435.425L16.9004 448.497L31.9647 454.431L42.3542 453.951L49.2384 444.085L56.058 426.764Z" fill="black" stroke="black"/>
<path d="M185.769 20.4352L175.012 58.4611C175.012 58.4611 136.401 30.5421 107.398 21.0514C98.9797 18.2966 91.3751 17.0958 84.5142 17.2581L32.4893 249.191C36.4302 280.465 40.5881 302.041 40.5881 302.041L-35.7246 280.44L-29.5775 258.711L25.155 281.888L32.4893 249.191C22.171 167.309 13.3398 18.942 84.5142 17.2581L89.8892 -6.7041L185.769 20.4352Z" fill="black"/>
<path d="M185.769 20.4352L175.012 58.4611C175.012 58.4611 136.401 30.5421 107.398 21.0514C-21.7035 -21.1953 40.5881 302.041 40.5881 302.041L-35.7246 280.44L-29.5775 258.711L25.155 281.888L89.8892 -6.7041L185.769 20.4352Z" stroke="black"/>
<path d="M293.293 199.736H315.511C316.587 199.736 317.461 198.863 317.461 197.786V123.275C317.461 122.198 316.587 121.324 315.511 121.324H151.553C150.476 121.324 149.603 120.451 149.603 119.374V101.038C149.603 99.9613 148.73 99.0879 147.653 99.0879H120.511C119.434 99.0879 118.561 99.9613 118.561 101.038V151.141C118.561 152.54 119.897 153.531 121.192 153.004C141.688 144.662 275.375 92.852 291.017 154.093C294.679 168.431 292.254 190.463 291.331 197.497C291.175 198.683 292.097 199.736 293.293 199.736Z" fill="#B44B47" stroke="#B44B47"/>
<path d="M188.895 282.049L118.561 332.016L135.753 433.673L220.154 468.132L304.555 418.166L323.311 332.016L304.555 282.049H188.895Z" fill="#82A985"/>
<path d="M284.394 23.5728L270.361 32.4403L265.535 34.5554L272.965 39.7932L285.366 36.3971L294.282 42.6828L307.656 52.111L301.942 60.221L283.971 65.2085L286.357 82.3398L306.194 95.2212L321.259 73.8397L324.147 57.1153L310.398 41.9053L284.394 23.5728Z" fill="black" stroke="black"/>
<path d="M215.865 469.497C251.394 468.136 304.785 424.245 304.785 424.245L323.31 332.179C323.31 332.179 248.077 442.147 213.276 440.543C180.291 439.026 159.183 430.861 133.348 411.66C124.265 404.907 103.578 414.632 103.578 414.632L105.686 435.761C105.686 435.761 130.313 450.16 141.498 453.199C175.113 462.335 180.649 470.847 215.865 469.497Z" fill="#B44B47"/>
<path d="M205.54 251.725C163.623 261.76 115.303 315.493 115.303 315.493L121.653 332.884C121.653 332.884 174.102 287.563 215.463 278.9C254.665 270.689 278.979 297.643 317.918 288.285C331.705 284.972 352.015 275.828 352.015 275.828L343.283 251.914C343.283 251.914 322.995 261.145 309.186 264.371C269.626 273.614 245.048 242.267 205.54 251.725Z" fill="#B44B47" stroke="#B44B47" stroke-width="28"/>
<path d="M266.831 157.238C277.321 145.773 228.93 157.238 228.93 157.238L249.143 159.669L245.431 184.132H250.072L250.957 159.669C250.957 159.669 261.722 162.822 266.831 157.238Z" fill="#1C1C1C" stroke="#1C1C1C" stroke-width="8"/>
<path d="M141.537 458.375L118.146 459.023C107.381 459.323 98.4115 450.834 98.1131 440.067L89.1092 115.229C88.8108 104.461 97.2961 95.4895 108.061 95.1911L131.452 94.5423C142.218 94.2439 151.187 102.731 151.485 113.5L160.489 438.335C160.788 449.106 152.302 458.075 141.537 458.375Z" fill="#B44B47" stroke="#B44B47"/>
</g>
</g>
<defs>
<clipPath id="clip0_352_2082">
<rect width="351" height="497" fill="white"/>
</clipPath>
</defs>
</svg>
