<svg width="351" height="497" viewBox="0 0 351 497" fill="none" xmlns="http://www.w3.org/2000/svg">
<g clip-path="url(#clip0_352_2116)">
<mask id="mask0_352_2116" style="mask-type:luminance" maskUnits="userSpaceOnUse" x="0" y="0" width="351" height="497">
<path d="M0 0V497H351V0H0Z" fill="white"/>
</mask>
<g mask="url(#mask0_352_2116)">
<path d="M0 0V497H351V0H0Z" fill="white"/>
<path d="M351 0H0V497H351V0Z" fill="#2C3872"/>
<path d="M44.2937 112.19L-38.8262 262.28L69.8797 465.019L242.913 483.443L350.414 324.348L316.052 131.199L244.759 38.1445L44.2937 112.19Z" fill="#F5DE91" stroke="#F5DE91"/>
<path d="M40.3641 28.5244H23.7891L24.1791 28.5243C24.1791 28.5243 37.0296 23.1533 40.3641 28.5244L49.7241 39.6424H38.4141C38.4141 39.6424 42.2942 31.6332 40.3641 28.5244Z" fill="#B44B47"/>
<path d="M40.3641 28.5244H23.7891L24.1791 28.5243C24.1791 28.5243 37.0296 23.1533 40.3641 28.5244ZM40.3641 28.5244L49.7241 39.6424H38.4141C38.4141 39.6424 42.2942 31.6332 40.3641 28.5244Z" stroke="#B44B47" stroke-width="11"/>
<path d="M157.928 158.129L171.711 102.872L171.387 104.172C171.387 104.172 178.596 151.48 157.928 158.129L113.1 180.087L122.505 142.383C122.505 142.383 145.964 161.978 157.928 158.129Z" fill="#B44B47"/>
<path d="M157.928 158.129L171.711 102.872L171.387 104.172C171.387 104.172 178.596 151.48 157.928 158.129ZM157.928 158.129L113.1 180.087L122.505 142.383C122.505 142.383 145.964 161.978 157.928 158.129Z" stroke="#B44B47" stroke-width="11"/>
<path d="M162.313 425.891L157.17 472.232L241.121 481.556L273.77 187.389L297.577 190.032L303.615 135.632L244.724 129.092C244.724 129.092 285.514 409.506 211.18 431.317C191.853 436.99 162.313 425.891 162.313 425.891Z" fill="#B44B47" stroke="#B44B47" stroke-width="11"/>
<path d="M286.617 348.936C248.665 348.936 234.779 342.126 234.779 342.126V348.936H258.998L275.569 355.319L267.921 370.214H286.617C286.617 370.214 311.26 348.936 286.617 348.936Z" fill="#82A985" stroke="#82A985" stroke-width="9"/>
<path d="M162.269 309.947L154.935 331.351C154.516 332.574 153.185 333.226 151.963 332.807C150.74 332.387 150.089 331.056 150.508 329.833L157.842 308.429C158.26 307.206 159.591 306.554 160.814 306.974C162.036 307.393 162.688 308.724 162.269 309.947Z" fill="#2C3872" stroke="#2C3872" stroke-width="8"/>
<path d="M226.079 346.304C204.962 338.982 175.664 193.551 189.802 210.88C238.386 270.432 215.28 200.997 220.248 202.72C241.366 210.043 251.769 326.436 237.141 343.34C233.699 347.317 231.047 348.028 226.079 346.304Z" fill="#2C3872" stroke="#2C3872" stroke-width="8"/>
<path d="M51.604 74.6928L49.1649 100.687L47.0352 108.845L62.0377 103.387L70.3232 84.1276L88.3264 77.5781L115.331 67.7532L120.547 82.1006L108.633 110.065L134.775 121.229L173.307 105.734L159.554 67.9096L139.49 50.103L104.113 55.5891L51.604 74.6928Z" fill="#82A985" stroke="#82A985" stroke-width="10"/>
<path d="M22.8512 453.331L10.3712 457.817C10.3712 457.817 8.09456 465.343 10.3712 469.131C13.0683 473.613 22.8512 474.007 22.8512 474.007L37.2812 469.131C37.2812 469.131 39.5111 461.629 37.2812 457.817C34.3021 452.723 22.8512 453.331 22.8512 453.331Z" fill="#F5DE91" stroke="#F5DE91"/>
<path d="M133.711 333.544C17.7493 333.544 0 333.544 0 333.544V414.687H133.711C133.711 414.687 249.673 333.544 133.711 333.544Z" fill="#82A985" stroke="#82A985"/>
<path d="M67.4328 338.947C51.6608 323.107 89.0529 179.545 94.1669 201.32C111.741 276.147 121.398 203.607 125.108 207.334C140.88 223.174 99.2295 332.352 78.675 341.132C73.8386 343.198 71.1437 342.674 67.4328 338.947Z" fill="#2C3872" stroke="#2C3872" stroke-width="8"/>
<path d="M231.254 280.489C231.254 280.489 257.611 348.082 231.254 348.082C172.828 348.082 179.879 373.303 76.1221 348.082C50.5085 341.855 76.1221 280.489 76.1221 280.489L86.1958 331.94H213.122L231.254 280.489Z" fill="#2C3872" stroke="#2C3872" stroke-width="9"/>
</g>
</g>
<defs>
<clipPath id="clip0_352_2116">
<rect width="351" height="497" fill="white"/>
</clipPath>
</defs>
</svg>
