<svg width="1005" height="331" viewBox="0 0 1005 331" fill="none" xmlns="http://www.w3.org/2000/svg">
<path d="M569.096 330.945V45.1511L611.613 44.9423L654.645 31.5826L684.839 35.8149L611.241 45.1511V307.129L708.114 198.403V45.1511H737.679V330.945H693.017V251.213L645.839 330.945H569.096Z" fill="#82A985"/>
<path d="M0 44.865H45.6021L28.1036 274.128H80.5991V176.442L102.34 202.359L88.553 274.128H142.639L120.368 44.865H167.561V330.945H0V44.865Z" fill="#2C3872"/>
<path d="M190.039 100.492H253.594V330.945H289.681L267.598 100.492C267.598 100.492 308.03 109.082 321.997 100.492C344.635 86.5685 358.622 44.865 358.622 44.865H204.581L190.039 100.492Z" fill="#B44B47"/>
<path d="M380.078 330.945V44.865H548.661V160.065L497.15 210.945H441.818L408.302 165.825V330.945H380.078Z" fill="#F5DE91"/>
<path d="M811.333 46.9084H753.004L821.703 195.424L753.004 330.945H821.703L836.609 195.424L862.533 330.945H918.27L862.533 160.152L926.696 46.9084H888.457L836.609 160.152L811.333 46.9084Z" fill="#2C3872"/>
<path d="M508.814 76.5381H431.164L440.744 145.819L469.989 168.492L491.671 139.521L508.814 76.5381Z" fill="#FFF8EC"/>
<path d="M957.455 34.6289L965.928 0H973.908L965.453 34.6289H957.455Z" fill="black"/>
<path d="M972.643 34.6289L981.115 0H989.096L980.641 34.6289H972.643Z" fill="black"/>
<path d="M987.83 34.6289L996.303 0H1004.28L995.828 34.6289H987.83Z" fill="black"/>
</svg>
