<svg width="535" height="378" viewBox="0 0 535 378" fill="none" xmlns="http://www.w3.org/2000/svg">
<g clip-path="url(#clip0_352_2069)">
<mask id="mask0_352_2069" style="mask-type:luminance" maskUnits="userSpaceOnUse" x="0" y="0" width="535" height="379">
<path d="M535 0H0V378.006H535V0Z" fill="white"/>
</mask>
<g mask="url(#mask0_352_2069)">
<path d="M535 0H0V378.006H535V0Z" fill="white"/>
<path d="M535 0H0V378.006H535V0Z" fill="#2C3872"/>
<path d="M238.922 -81.4812L55.4316 36.8245L100.285 277.515L320.473 359.105L540.661 240.8L589.592 36.8245L540.661 -81.4812H238.922Z" fill="#F5DE91" stroke="#F5DE91" stroke-width="1.52422"/>
<path d="M427.496 28.5605L461.091 175.983" stroke="#B44B47" stroke-width="12.1937"/>
<path d="M255.742 176.823V201.183C255.742 202.575 254.614 203.703 253.223 203.703C251.831 203.703 250.703 202.575 250.703 201.183V176.823C250.703 175.431 251.831 174.302 253.223 174.302C254.614 174.302 255.742 175.431 255.742 176.823Z" fill="#B44B47" stroke="#B44B47" stroke-width="12.1937"/>
<path d="M154.537 91.9814V189.179V226.803L459.831 220.383V178.653L172.496 204.333L192.699 91.9814H154.537Z" fill="#B44B47" stroke="#B44B47" stroke-width="22.8632"/>
<path d="M15.6074 361.226L21.0432 339.006H26.1633L20.7387 361.226H15.6074ZM25.3513 361.226L30.7871 339.006H35.9071L30.4826 361.226H25.3513ZM35.0951 361.226L40.5309 339.006H45.6508L40.2265 361.226H35.0951Z" fill="#FFFCFC"/>
<path d="M483 54.2016L488.434 31.981H493.553L488.132 54.2016H483ZM492.743 54.2016L498.177 31.981H503.3L497.874 54.2016H492.743ZM502.485 54.2016L507.923 31.981H513.042L507.617 54.2016H502.485Z" fill="#2C3872"/>
</g>
</g>
<defs>
<clipPath id="clip0_352_2069">
<rect width="535" height="378.006" fill="white"/>
</clipPath>
</defs>
</svg>
