<svg width="537" height="406" viewBox="0 0 537 406" fill="none" xmlns="http://www.w3.org/2000/svg">
<g clip-path="url(#clip0_352_2137)">
<mask id="mask0_352_2137" style="mask-type:luminance" maskUnits="userSpaceOnUse" x="0" y="0" width="537" height="406">
<path d="M537 0H0V405.427H537V0Z" fill="white"/>
</mask>
<g mask="url(#mask0_352_2137)">
<path d="M537 0H0V405.427H537V0Z" fill="white"/>
<path d="M537 0H0V405.427H537V0Z" fill="#2C3872"/>
<path d="M122.066 22.0732L28.2402 119.084L44.6845 311.053L84.9932 359.704L163.766 383.354L276.357 286.343L301.377 119.084L276.357 22.0732H122.066Z" fill="#F5DE91" stroke="#F5DE91" stroke-width="1.52991"/>
<path d="M86.4082 206.976L109.252 258.952L118.094 279.071L268.658 199.3L258.85 176.985L121.759 262.565L105.417 197.433L86.4082 206.976Z" fill="#B44B47" stroke="#B44B47" stroke-width="1.52991"/>
<path d="M253.352 371.663H288.526V383.354H299.752V371.663H333.43C333.43 371.663 337.92 366.183 316.965 364.722C275.476 361.829 264.578 364.722 251.855 368.01C233.466 372.763 253.352 371.663 253.352 371.663Z" fill="#1C1C1C" stroke="#1C1C1C" stroke-width="1.52991"/>
<path d="M515.082 22.0732H163.967V159.704H203.441C203.441 159.704 188.935 121.29 182.665 90.8887C151.758 -58.9726 342.641 90.8887 342.641 90.8887V383.354H371.727V90.8887C371.727 90.8887 510.049 -24.3445 490.15 90.8887C484.7 122.467 469.374 159.704 469.374 159.704H515.082V22.0732Z" fill="#1C1C1C" stroke="#1C1C1C" stroke-width="1.52991"/>
<path d="M217.748 55.8848L204.26 61.0653C204.26 61.0653 201.799 69.7572 204.26 74.129C207.174 79.3082 217.748 79.76 217.748 79.76L233.344 74.129C233.344 74.129 235.753 65.4691 233.344 61.0653C230.124 55.1816 217.748 55.8848 217.748 55.8848Z" fill="#131313" stroke="#F5DE91" stroke-width="1.52991"/>
<path d="M55.6433 259.023H28.2402V383.354L202.189 355.886V383.354H234.357V315.406C234.357 315.406 73.2053 397.369 55.6433 315.406C51.0771 294.095 55.6433 259.023 55.6433 259.023Z" fill="#B44B47" stroke="#B44B47" stroke-width="1.52991"/>
<path d="M35.9127 22.0732L26.707 46.0781L22.7617 53.1389H35.9127L47.7487 37.606H63.5299H87.2017V53.1389L70.1054 75.7316L87.2017 95.5006L121.394 94.0884V53.1389L110.874 29.1336L81.9413 22.0732H35.9127Z" fill="#82A985" stroke="#82A985" stroke-width="1.52991"/>
<path d="M515.925 22.0898V383.805L396.849 382.223C396.849 382.223 432.091 347.049 464.332 304.529C486.487 275.311 486.078 288.125 486.078 243.659C486.078 170.421 439.122 102.926 442.178 63.4818C445.099 25.7566 389.697 22.3334 374.922 22.0898H371.348C371.348 22.0898 372.658 22.0525 374.922 22.0898H515.925Z" fill="#B44B47"/>
<path d="M374.922 22.0898C389.697 22.3334 445.099 25.7566 442.178 63.4818C439.122 102.926 486.078 170.421 486.078 243.659C486.078 288.125 486.487 275.311 464.332 304.529C432.091 347.049 396.849 382.223 396.849 382.223L515.925 383.805V22.0898H374.922ZM374.922 22.0898H371.348C371.348 22.0898 372.658 22.0525 374.922 22.0898Z" stroke="#2C3872" stroke-width="1.52991"/>
<path d="M413.767 322.535H234.357L238.579 322.534C238.579 322.534 377.675 293.153 413.767 322.535L515.081 383.354H392.66C392.66 383.354 434.658 339.541 413.767 322.535Z" fill="#82A985"/>
<path d="M413.767 322.535H234.357L238.579 322.534C238.579 322.534 377.675 293.153 413.767 322.535ZM413.767 322.535L515.081 383.354H392.66C392.66 383.354 434.658 339.541 413.767 322.535Z" stroke="#82A985" stroke-width="1.52991"/>
<path d="M428.167 146.167C423.965 144.26 420.033 112.188 422.671 116.168C431.738 129.845 428.003 114.397 428.989 114.846C433.192 116.753 433.681 142.227 430.46 145.686C429.706 146.5 429.154 146.616 428.167 146.167Z" fill="black"/>
</g>
</g>
<defs>
<clipPath id="clip0_352_2137">
<rect width="537" height="405.427" fill="white"/>
</clipPath>
</defs>
</svg>
