<svg width="1274" height="704" viewBox="0 0 1274 704" fill="none" xmlns="http://www.w3.org/2000/svg">
<g clip-path="url(#clip0_64_164)">
<rect width="1274" height="704" fill="#FFF7E8"/>
<line x1="1094.5" y1="702" x2="1094.5" y2="2" stroke="black"/>
<line x1="1273.5" y1="701" x2="1273.5" y2="1" stroke="black"/>
<line x1="365.5" y1="702" x2="365.5" y2="2" stroke="black"/>
<line y1="1.5" x2="1274" y2="1.5" stroke="black"/>
<line x1="181.5" y1="702" x2="181.5" y2="2" stroke="black"/>
<line x1="0.5" y1="702" x2="0.5" y2="2" stroke="black"/>
<line x1="547.5" y1="702" x2="547.5" y2="2" stroke="black"/>
<line x1="727.5" y1="702" x2="727.5" y2="2" stroke="black"/>
<line x1="909.5" y1="702" x2="909.5" y2="2" stroke="black"/>
<line y1="246.5" x2="1274" y2="246.5" stroke="black"/>
<line y1="126.5" x2="1274" y2="126.5" stroke="black"/>
<line y1="532.5" x2="1274" y2="532.5" stroke="black"/>
<line y1="362.5" x2="1274" y2="362.5" stroke="black"/>
<line x1="1" y1="701.5" x2="1274" y2="701.5" stroke="black"/>
<path d="M1198 617C1153.34 617.001 1137 609 1137 609V617H1165.5L1185 624.5L1176 642H1198C1198 642 1227 617 1198 617Z" fill="#82A985" stroke="#82A985"/>
<path d="M442 104.388V38H466.293C466.293 38 456.514 44.8575 451.324 52.647C447.757 57.9995 447.823 55.6522 447.823 63.7981C447.823 77.2148 455.382 89.5796 454.89 96.8054C454.42 103.716 463.339 104.344 465.718 104.388H466.293C466.293 104.388 466.082 104.395 465.718 104.388H442Z" fill="#2C3872"/>
<path d="M442 38V104.388H466.293C466.293 104.388 454.348 104.776 454.89 96.8054C455.382 89.5796 447.823 77.2148 447.823 63.7981C447.823 55.6522 447.757 57.9995 451.324 52.647C456.514 44.8575 466.293 38 466.293 38H442Z" stroke="#2C3872" stroke-width="5"/>
<path d="M634.165 102.79C625.198 96.7206 629.72 25.059 634.165 34.9324C649.44 68.8613 647.33 33.5042 649.44 34.9324C658.407 41.0019 648.682 96.7206 639.715 102.79C637.605 104.218 636.275 104.218 634.165 102.79Z" fill="#2C3872" stroke="#2C3872"/>
<path d="M290.5 110C290.5 110 257 123.083 257 110C257 81 244.5 84.5 257 33C260.086 20.2866 290.5 33 290.5 33L265 38V101L290.5 110Z" fill="#2C3872" stroke="#2C3872"/>
<path d="M825 40V98C825 101.314 822.314 104 819 104C815.686 104 813 101.314 813 98V40C813 36.6863 815.686 34 819 34C822.314 34 825 36.6863 825 40Z" fill="#2C3872" stroke="#2C3872"/>
<path d="M1003 38V103.5" stroke="#2C3872" stroke-width="11"/>
<path d="M1175.1 98.0719L1161 100.048V104H1171.58L1179.8 102.024L1187.24 98.0719L1189.2 92.9341V55.7844V49.8563L1191.94 45.9042L1198.21 43.1377H1208V38H1198.21L1184.89 40.3713L1182.54 47.485V62.503V79.497V92.9341L1175.1 98.0719Z" fill="#2C3872" stroke="#2C3872" stroke-width="6"/>
<path d="M269.865 176.181C254.26 174.374 231 186.719 231 186.719V193.464C231 193.464 254.622 184.513 269.865 186.719C284.313 188.81 289.268 201.072 303.769 202.738C308.904 203.328 317 202.738 317 202.738V193.464C317 193.464 308.9 194.086 303.769 193.464C289.07 191.681 284.574 177.883 269.865 176.181Z" fill="#B44B47" stroke="#B44B47"/>
<path d="M464 176L414 197.5C414 197.5 421.639 197.945 426.5 197.5C442.28 196.055 448.176 181.159 464 182C478.042 182.746 482.523 195.959 496.5 197.5C501.158 198.014 508.5 197.5 508.5 197.5L464 176Z" fill="#B44B47" stroke="#B44B47" stroke-width="2"/>
<path d="M602 173V188.14V194L670 193V186.5L606 190.5L610.5 173H602Z" fill="#B44B47" stroke="#B44B47" stroke-width="4"/>
<path d="M768 174H779.709C779.709 174 774.865 185.003 774.5 192.5C774.394 194.676 774.665 196.556 775.265 198.168L845.586 194.953C854.184 191.928 860 189.5 860 189.5V209H853.309L855.5 194.5L845.586 194.953C823.075 202.875 781.489 214.894 775.265 198.168L768 198.5V174Z" fill="#B44B47"/>
<path d="M768 174H779.709C779.709 174 774.865 185.003 774.5 192.5C772.874 225.871 860 189.5 860 189.5V209H853.309L855.5 194.5L768 198.5V174Z" stroke="#B44B47"/>
<path d="M971.5 166H960V199.5H1033V209H1046.5V185.5C1046.5 185.5 978.87 213.847 971.5 185.5C969.584 178.13 971.5 166 971.5 166Z" fill="#B44B47" stroke="#B44B47"/>
<path d="M1136 184.974H1147.83C1166.88 178.411 1203.21 168.578 1212.8 184.974H1214.57L1233 209H1214.57C1214.57 209 1216.37 196.848 1214.57 189.423C1214.16 187.763 1213.57 186.285 1212.8 184.974H1147.83C1140.71 187.427 1136 189.423 1136 189.423V184.974Z" fill="#B44B47"/>
<path d="M1136 184.974H1214.57L1233 209H1214.57C1214.57 209 1216.37 196.848 1214.57 189.423C1207.24 159.221 1136 189.423 1136 189.423V184.974Z" stroke="#B44B47"/>
<circle cx="272" cy="307" r="29" fill="#F5DE91"/>
<path d="M447.5 280L425 294.5L430.5 324L457.5 334L484.5 319.5L490.5 294.5L484.5 280H447.5Z" fill="#F5DE91" stroke="#F5DE91"/>
<path d="M658.5 286H602V324.5H658.5C658.5 324.5 707.5 286 658.5 286Z" fill="#F5DE91" stroke="#F5DE91"/>
<path d="M813.595 278.058L781.595 289.558C781.595 289.558 775.757 308.853 781.595 318.558C788.51 330.055 813.595 331.058 813.595 331.058L850.595 318.558C850.595 318.558 856.312 299.334 850.595 289.558C842.956 276.497 813.595 278.058 813.595 278.058Z" fill="#F5DE91" stroke="#F5DE91"/>
<path d="M986.128 282C986.128 282 976.174 292.192 974.235 300.569C972.933 306.19 972.276 309.909 974.235 315.339C976.532 321.706 986.128 328 986.128 328H1017.98C1017.98 328 1028.29 321.901 1030.73 315.339C1032.73 309.927 1032.08 306.178 1030.73 300.569C1028.67 292.034 1017.98 282 1017.98 282H986.128Z" fill="#F5DE91" stroke="#F5DE91"/>
<path d="M1159.5 318H1152.27C1149.16 318.092 1147 318 1147 318H1152.27C1163.68 317.663 1187.89 314.857 1165.5 296C1137 272 1199.5 279 1199.5 279L1211 318H1159.5Z" fill="#F5DE91"/>
<path d="M1159.5 318H1147C1147 318 1194 320 1165.5 296C1137 272 1199.5 279 1199.5 279L1211 318H1159.5Z" stroke="#F5DE91"/>
<path d="M310.128 434.124C330.367 415.845 237 434.124 237 434.124L276 438L268.838 477H277.793L279.5 438C279.5 438 300.271 443.026 310.128 434.124Z" fill="#1C1C1C" stroke="#1C1C1C"/>
<path d="M503.5 437H419V449H428.5C428.5 449 425.009 445.651 423.5 443C416.062 429.934 462 443 462 443V468.5H469V443C469 443 502.289 432.953 497.5 443C496.188 445.753 492.5 449 492.5 449H503.5V437Z" fill="#1C1C1C" stroke="#1C1C1C"/>
<path d="M602 450H625.5V466H633V450H655.5C655.5 450 658.5 442.5 644.5 440.5C616.781 436.54 609.5 440.5 601 445C588.714 451.505 602 450 602 450Z" fill="#1C1C1C" stroke="#1C1C1C"/>
<path d="M856 436H787L797 439.587H816.885V469H828.387V439.587H844.5L856 436Z" fill="#1C1C1C" stroke="#1C1C1C"/>
<path d="M995.5 443.5C988.607 437.778 986.5 437 986.5 437H1029.5C1029.5 437 1027.7 437.034 1021.5 443.5C1018.53 446.594 1017.41 448.95 1016 453C1013.57 460.01 1016 472 1016 472H1003C1003 472 1005.96 459.802 1003 453C1001.11 448.667 999.137 446.519 995.5 443.5Z" fill="#1C1C1C" stroke="#1C1C1C"/>
<path d="M1153.76 430.5C1154.11 430.679 1154.47 430.855 1154.82 431.027C1160.91 429.818 1168.42 429.589 1173 434C1173.89 434.854 1174.6 435.868 1175.17 437.002C1177.79 437.228 1180.4 437.234 1183.03 437.026C1183.66 435.82 1184.47 434.767 1185.5 433.918C1189.89 430.303 1197.16 430.664 1202.82 431.721C1203.71 431.334 1204.6 430.927 1205.5 430.5C1208.47 429.093 1211 428 1211 428V433.918C1211 433.918 1207.45 432.586 1202.82 431.721C1195.94 434.723 1189.45 436.517 1183.03 437.026C1177.76 447.157 1185.5 468 1185.5 468H1173C1173 468 1180.36 447.428 1175.17 437.002C1168.56 436.432 1161.89 434.467 1154.82 431.027C1149.33 432.116 1145 434 1145 434V428C1145 428 1150.95 429.083 1153.76 430.5Z" fill="#1C1C1C"/>
<path d="M1153.76 430.5C1171.84 439.624 1187.2 439.179 1205.5 430.5C1208.47 429.093 1211 428 1211 428V433.918C1211 433.918 1193.48 427.344 1185.5 433.918C1175.8 441.901 1185.5 468 1185.5 468H1173C1173 468 1182.05 442.711 1173 434C1164.29 425.614 1145 434 1145 434V428C1145 428 1150.95 429.083 1153.76 430.5Z" stroke="#1C1C1C"/>
<path d="M262.728 607L245 619.031V624.865L262.728 613.927L288.765 624.865L294.028 642H304L288.765 613.927L262.728 607Z" fill="#82A985" stroke="#82A985"/>
<path d="M463.5 607.119H421L422 607.119C422 607.119 454.95 593.351 463.5 607.119L487.5 635.619H458.5C458.5 635.619 468.449 615.088 463.5 607.119Z" fill="#82A985"/>
<path d="M463.5 607.119H421L422 607.119C422 607.119 454.95 593.351 463.5 607.119ZM463.5 607.119L487.5 635.619H458.5C458.5 635.619 468.449 615.088 463.5 607.119Z" stroke="#82A985"/>
<path d="M608.001 611.764C607.878 604.593 618.97 604.169 629.574 605.395C637.84 602.027 646.028 601.134 648.5 609C648.5 609 671.433 627.418 663.619 636.625C657.537 643.792 649.582 641.166 643.5 634C637.432 626.849 650 612 648.5 609C648.5 609 639.239 606.512 629.574 605.395C619.45 609.519 609.209 617.355 609.209 617.355C609.209 617.355 608.043 614.23 608.001 611.764Z" fill="#82A985"/>
<path d="M648.5 609C648.5 609 607.767 598.057 608.001 611.764C608.043 614.23 609.209 617.355 609.209 617.355C609.209 617.355 643 591.5 648.5 609ZM648.5 609C648.5 609 671.433 627.418 663.619 636.625C657.537 643.792 649.582 641.166 643.5 634C637.432 626.849 650 612 648.5 609Z" stroke="#82A985"/>
<path d="M814.5 611H787V616.5H814.5H837V632.5H856L837 611H814.5Z" fill="#82A985" stroke="#82A985"/>
<path d="M986.133 606L981.84 616.462L980 619.538H986.133L991.653 612.769H999.013H1010.05V619.538L1002.08 629.385L1010.05 638L1026 637.385V619.538L1021.09 609.077L1007.6 606H986.133Z" fill="#82A985" stroke="#82A985"/>
</g>
<defs>
<clipPath id="clip0_64_164">
<rect width="1274" height="704" fill="white"/>
</clipPath>
</defs>
</svg>
